<svg width="1219" height="377" viewBox="0 0 1219 377" fill="none" xmlns="http://www.w3.org/2000/svg">
<path d="M567.51 193.21V132.01H590.16V191.52V194.17V251.75H567.51V238.74C557.15 246.93 544.14 251.75 529.92 251.75C496.67 251.75 469.69 224.77 469.69 191.52V132.01H492.34V191.52C492.34 212.24 509.21 229.11 529.93 229.11C550.17 229.11 566.55 213.21 567.51 193.21Z" fill="white"/>
<path d="M639.79 189.59V251.27H617.14V131.53H639.79V144.06C649.91 135.87 663.16 130.81 677.38 130.81C710.63 130.81 737.61 157.8 737.61 191.04V251.27H714.96V191.04C714.96 170.32 698.09 153.45 677.37 153.45C657.14 153.45 640.52 169.59 639.79 189.59Z" fill="white"/>
<path d="M777.85 113.46C769.42 113.46 762.43 106.47 762.43 98.04C762.43 89.61 769.42 82.62 777.85 82.62C786.28 82.62 793.27 89.61 793.27 98.04C793.27 106.47 786.28 113.46 777.85 113.46ZM766.53 132.25H789.18V251.27H766.53V132.25Z" fill="white"/>
<path d="M879.77 228.63V251.04C846.28 251.04 819.54 224.3 819.54 190.81V109.37H842.19V132.26H879.78V155.15H842.19V190.81C842.18 211.52 859.05 228.38 879.77 228.63Z" fill="white"/>
<path d="M1008.91 191.04C1008.91 224.29 981.93 251.27 948.68 251.27C915.43 251.27 888.45 224.28 888.45 191.04C888.45 157.79 915.43 130.81 948.68 130.81C981.92 130.8 1008.91 157.79 1008.91 191.04ZM986.26 191.04C986.26 170.32 969.39 153.45 948.67 153.45C927.95 153.45 911.08 170.32 911.08 191.04C911.08 211.76 927.95 228.63 948.67 228.63C969.4 228.63 986.26 211.76 986.26 191.04Z" fill="white"/>
<path d="M1141.9 191.04C1141.9 224.29 1114.91 251.27 1081.67 251.27C1048.43 251.27 1021.44 224.28 1021.44 191.04C1021.44 157.79 1048.43 130.81 1081.67 130.81C1114.91 130.81 1141.9 157.79 1141.9 191.04ZM1119.26 191.04C1119.26 170.32 1102.39 153.45 1081.67 153.45C1060.95 153.45 1044.08 170.32 1044.08 191.04C1044.08 211.76 1060.95 228.63 1081.67 228.63C1102.39 228.63 1119.26 211.76 1119.26 191.04Z" fill="white"/>
<path d="M1219 228.87V251.76C1185.75 251.76 1158.53 224.78 1158.53 191.28V70.81H1181.18V191.28C1181.17 212.24 1198.28 228.87 1219 228.87Z" fill="white"/>
<path d="M213.52 162.05C228.23 162.05 240.15 173.97 240.15 188.68V346.83C240.15 360.6 230.08 372.32 216.47 374.34C207.48 375.68 198.28 376.38 188.93 376.39C84.75 376.56 -0.179974 290.96 0.790026 186.78C1.21003 141.24 17.84 99.58 45.18 67.27C54.6 56.14 72.81 62.86 72.81 77.44V186.34C72.81 219.5 99.69 246.37 132.84 246.37C162.69 246.37 186.88 222.17 186.88 192.33V188.66C186.89 173.97 198.81 162.05 213.52 162.05Z" fill="url(#paint0_linear_1_15)"/>
<path d="M129.85 216.67C114.77 216.67 102.54 204.44 102.54 189.36V67.58C102.54 36.17 124.94 9.01001 155.88 3.57001C166.51 1.70001 177.45 0.72998 188.62 0.72998C256.6 0.72998 316.14 36.84 349.11 90.93C360.17 109.07 346.95 132.33 325.7 132.33H201.11C176.84 132.33 157.17 152 157.17 176.27V189.36C157.16 204.44 144.93 216.67 129.85 216.67Z" fill="url(#paint1_linear_1_15)"/>
<path d="M376.45 188.56C376.45 248.05 348.79 301.08 305.63 335.49C291.29 346.92 270.08 336.54 270.08 318.2V199.14C270.08 178.66 286.68 162.05 307.17 162.05H354.41C366.32 162.05 376.07 171.54 376.39 183.45C376.42 185.15 376.45 186.85 376.45 188.56Z" fill="url(#paint2_linear_1_15)"/>
<defs>
<linearGradient id="paint0_linear_1_15" x1="68.6215" y1="336.035" x2="185.565" y2="133.483" gradientUnits="userSpaceOnUse">
<stop stop-color="#735FFA"/>
<stop offset="0.9972" stop-color="#BE87FF"/>
</linearGradient>
<linearGradient id="paint1_linear_1_15" x1="145.679" y1="4.98898" x2="247.672" y2="181.645" gradientUnits="userSpaceOnUse">
<stop stop-color="#735FFA"/>
<stop offset="0.9972" stop-color="#BE87FF"/>
</linearGradient>
<linearGradient id="paint2_linear_1_15" x1="259.364" y1="324.739" x2="355.044" y2="159.016" gradientUnits="userSpaceOnUse">
<stop stop-color="#735FFA"/>
<stop offset="0.9972" stop-color="#BE87FF"/>
</linearGradient>
</defs>
</svg>
